<svg xmlns="http://www.w3.org/2000/svg" xmlns:svg="http://www.w3.org/2000/svg" id="svg4423" width="224.225" height="312.808" version="1.1"><metadata id="metadata4428"/><g id="layer1" transform="translate(-259.93473,-369.77721)"><g id="g8900" transform="translate(-1313.6208,198.14981)" style="display:inline"><g id="g8879" transform="translate(-4683.8753,2918.9368)"><rect id="rect6347" width="223.228" height="311.811" x="6257.929" y="-2746.811" style="display:inline;fill:#fff;fill-opacity:1;stroke:#000;stroke-width:.99673343;stroke-miterlimit:4;stroke-dasharray:none;stroke-opacity:1" rx="10.63" ry="10.63"/></g><g id="g6564" transform="translate(-0.13622252,4.5315816e-5)"><path id="path8628" d="m 1583.2699,232.35726 c -1.583,-3.47229 -1.7567,-9.4054 2.9711,-10.20801 3.5621,-0.45844 5.0117,1.1983 5.2999,3.74186 0.1422,0.74302 0.5617,0.7885 0.6948,-0.0583 0.2044,-2.60939 2.7872,-4.1326 4.8064,-3.74997 5.5266,0.9454 5.2039,7.02845 3.3985,11.15554 -2.7309,5.47946 -5.6006,8.93761 -8.245,14.45186 -3.0382,-5.74101 -6.5073,-10.4051 -8.9257,-15.33294 z" style="display:inline;fill:#d40000;fill-opacity:1"/><g id="g6555"><path id="path8650" d="m 1770.9937,423.6289 c -1.583,3.47229 -1.7567,9.4054 2.9711,10.20801 3.5621,0.45844 5.0117,-1.1983 5.2999,-3.74186 0.1422,-0.74302 0.5617,-0.7885 0.6948,0.0583 0.2044,2.60939 2.7872,4.1326 4.8064,3.74997 5.5266,-0.9454 5.2039,-7.02845 3.3985,-11.15554 -2.7309,-5.47946 -5.6006,-8.93761 -8.245,-14.45186 -3.0382,5.74101 -6.5073,10.4051 -8.9257,15.33294 z" style="display:inline;fill:#d40000;fill-opacity:1"/><g id="g6548"><g style="display:inline" id="g8574" transform="matrix(0.30106207,0,0,0.30106207,995.9849,969.13578)"><path style="display:inline;fill:#d40000;fill-opacity:1" id="path7100" d="m 1947.7014,-2492.4202 0.5475,-6.7053 c 1.6921,-20.7232 6.2259,-27.7229 31.9598,-49.3427 12.4881,-10.4917 16.588,-15.6693 17.1653,-21.6774 1.6305,-14.1496 -11.1311,-18.5702 -19.4476,-18.6469 -10.7689,-0.099 -22.9509,6.3494 -17.1429,21.3044 l -12.079,3.547 c -2.4391,-13.9512 0.056,-27.0442 11.3776,-32.8584 15.1008,-7.5722 34.4781,-4.6012 44.2548,7.33 6.5707,8.0186 8.0644,19.0862 4.5432,27.754 -10.299,22.16 -45.2435,31.9083 -48.132,57.5277 l 38.6337,0 0,-14.2665 11.3788,0 0,26.2639 z"/><path id="path7116" d="m 2633.9663,-1766.5324 -0.5475,6.7053 c -1.6921,20.7232 -6.2259,27.7229 -31.9598,49.3427 -12.4881,10.4917 -16.588,15.6693 -17.1653,21.6774 -1.6305,14.1496 11.1311,18.5702 19.4476,18.6469 10.7689,0.099 22.9509,-6.3494 17.1429,-21.3044 l 12.079,-3.547 c 2.4391,13.9512 -0.056,27.0442 -11.3776,32.8584 -15.1008,7.5722 -34.4781,4.6012 -44.2548,-7.33 -6.5707,-8.0186 -8.0644,-19.0862 -4.5432,-27.754 10.299,-22.16 45.2435,-31.9083 48.132,-57.5277 l -38.6337,0 0,14.2665 -11.3788,0 0,-26.2639 z" style="display:inline;fill:#d40000;fill-opacity:1"/></g><path style="display:inline;fill:#d40000;fill-opacity:1" id="path8514" d="m 1673.7193,200.0914 c 7.144,-0.4744 10.8684,5.62741 11.5952,10.43645 0.4334,0.76389 0.6707,0.54864 0.8369,-0.0423 0.3493,-6.17414 5.8749,-11.22017 10.9926,-10.53018 8.328,0.10829 13.3895,9.3754 11.9664,17.21876 -1.7385,9.58159 -6.8997,15.35109 -10.8078,21.29311 -4.4213,6.15238 -10.3727,15.0395 -12.2901,19.31683 0,0 -6.0483,-9.20452 -13.9172,-20.02959 -5.2618,-7.23851 -9.4731,-15.08233 -9.8651,-21.83538 -0.4479,-7.71548 2.7193,-14.63175 11.4891,-15.82765 z"/><path style="display:inline;fill:#d40000;fill-opacity:1" id="path8580" d="m 1673.7193,456.39275 c 7.144,0.4744 10.8684,-5.62741 11.5952,-10.43645 0.4334,-0.76389 0.6707,-0.54864 0.8369,0.0423 0.3493,6.17414 5.8749,11.22017 10.9926,10.53018 8.328,-0.10829 13.3895,-9.3754 11.9664,-17.21876 -1.7385,-9.58159 -6.8997,-15.35109 -10.8078,-21.29311 -4.4213,-6.15238 -10.3727,-15.0395 -12.2901,-19.31683 0,0 -6.0483,9.20452 -13.9172,20.02959 -5.2618,7.23851 -9.4731,15.08233 -9.8651,21.83538 -0.4479,7.71548 2.7193,14.63175 11.4891,15.82765 z"/></g></g></g></g></g></svg>