<svg xmlns="http://www.w3.org/2000/svg" xmlns:svg="http://www.w3.org/2000/svg" id="svg4423" width="224.225" height="312.808" version="1.1"><metadata id="metadata4428"/><g id="layer1" transform="translate(-259.93475,-369.77721)"><g id="g8912" transform="translate(-1536.8493,198.14981)" style="display:inline"><g id="g8784"><g id="g8890" transform="translate(-4683.8753,2918.9368)"><rect id="rect6351" width="223.228" height="311.811" x="6481.158" y="-2746.811" rx="10.63" ry="10.63" style="display:inline;fill:#fff;fill-opacity:1;stroke:#000;stroke-width:.99673343;stroke-miterlimit:4;stroke-dasharray:none;stroke-opacity:1"/><g id="g8582" transform="matrix(0.30106207,0,0,0.30106207,5635.595,-1948.9541)"><path style="display:inline;fill:#d40000;fill-opacity:1" id="path7102" d="m 2836.6637,-2519.8906 8.4607,-6.1116 c 7.3538,11.7376 15.5625,19.4745 28.1181,18.1437 18.8453,-1.2674 26.6487,-20.6606 22.7039,-35.2849 -3.8092,-13.103 -19.417,-19.4954 -31.8153,-12.4982 -2.9236,1.65 -6.3052,3.6875 -6.3052,3.6875 l -4.4137,-7.1942 29.1094,-33.8631 -31.5895,0 0,14.0158 -12.1218,0 0,-25.1275 61.7456,0 0,8.5286 c 0,0 -16.5384,16.8366 -22.0128,26.0657 13.4691,0.4898 24.3232,8.8645 28.2078,22.1159 2.2798,6.97 1.255,22.9224 -1.7164,29.7878 -4.9614,11.4634 -18.5478,20.7594 -30.9625,21.2965 -20.8281,1.3757 -31.8931,-12.9608 -37.4083,-23.562 z"/><path id="path7118" d="m 3522.0047,-1744.6882 -8.4607,6.1116 c -7.3538,-11.7376 -15.5625,-19.4745 -28.1181,-18.1437 -18.8453,1.2674 -26.6487,20.6606 -22.7039,35.2849 3.8092,13.103 19.417,19.4954 31.8153,12.4982 2.9236,-1.65 6.3052,-3.375 6.3052,-3.375 l 5.2262,6.7567 -29.9219,33.9881 31.5895,0 0,-14.0158 12.1218,0 0,25.1275 -61.7456,0 0,-8.5286 c 0,0 16.5384,-16.8366 22.0128,-26.0657 -13.4691,-0.4898 -24.3232,-8.8645 -28.2078,-22.1159 -2.2798,-6.97 -1.255,-22.9224 1.7164,-29.7878 4.9614,-11.4634 18.5478,-20.7594 30.9625,-21.2965 20.8281,-1.3757 31.8931,12.9608 37.4083,23.562 z" style="display:inline;fill:#d40000;fill-opacity:1"/></g></g></g><path style="display:inline;fill:#d40000;fill-opacity:1" id="path8630" d="m 1807.0252,232.7902 c -1.583,-3.47229 -1.7567,-9.4054 2.9711,-10.20801 3.5621,-0.45844 5.0117,1.1983 5.2999,3.74186 0.1422,0.74302 0.5617,0.7885 0.6948,-0.0583 0.2044,-2.60939 2.7872,-4.1326 4.8064,-3.74997 5.5266,0.9454 5.2039,7.02845 3.3985,11.15554 -2.7309,5.47946 -5.6006,8.93761 -8.245,14.45186 -3.0382,-5.74101 -6.5073,-10.4051 -8.9257,-15.33294 z"/><path id="path8516" d="m 1896.7834,200.86277 c 7.144,-0.4744 10.8684,5.62741 11.5952,10.43645 0.4334,0.76389 0.6707,0.54864 0.8369,-0.0423 0.3493,-6.17414 5.8749,-11.22017 10.9926,-10.53018 8.328,0.10829 13.3895,9.3754 11.9664,17.21876 -1.7385,9.58159 -6.8997,15.35109 -10.8078,21.29311 -4.4213,6.15238 -10.3727,15.0395 -12.2901,19.31683 0,0 -6.0483,-9.20452 -13.9172,-20.02959 -5.2618,-7.23851 -9.4731,-15.08233 -9.8651,-21.83538 -0.4479,-7.71548 2.7193,-14.63175 11.4891,-15.82765 z" style="display:inline;fill:#d40000;fill-opacity:1"/><path id="path8518" d="m 1896.8468,299.28461 c 7.144,-0.4744 10.8684,5.62741 11.5952,10.43645 0.4334,0.76389 0.6707,0.54864 0.8369,-0.0423 0.3493,-6.17414 5.8749,-11.22017 10.9926,-10.53018 8.328,0.10829 13.3895,9.3754 11.9664,17.21876 -1.7385,9.58159 -6.8997,15.35109 -10.8078,21.29311 -4.4213,6.15238 -10.3727,15.0395 -12.2901,19.31683 0,0 -6.0483,-9.20452 -13.9172,-20.02959 -5.2618,-7.23851 -9.4731,-15.08233 -9.8651,-21.83538 -0.4479,-7.71548 2.7193,-14.63175 11.4891,-15.82765 z" style="display:inline;fill:#d40000;fill-opacity:1"/><path id="path8652" d="m 1994.012,424.00217 c -1.583,3.47229 -1.7567,9.4054 2.9711,10.20801 3.5621,0.45844 5.0117,-1.1983 5.2999,-3.74186 0.1422,-0.74302 0.5617,-0.7885 0.6948,0.0583 0.2044,2.60939 2.7872,4.1326 4.8064,3.74997 5.5266,-0.9454 5.2039,-7.02845 3.3985,-11.15554 -2.7309,-5.47946 -5.6006,-8.93761 -8.245,-14.45186 -3.0382,5.74101 -6.5073,10.4051 -8.9257,15.33294 z" style="display:inline;fill:#d40000;fill-opacity:1"/><path id="path8582" d="m 1896.7834,455.45911 c 7.144,0.4744 10.8684,-5.62741 11.5952,-10.43645 0.4334,-0.76389 0.6707,-0.54864 0.8369,0.0423 0.3493,6.17414 5.8749,11.22017 10.9926,10.53018 8.328,-0.10829 13.3895,-9.3754 11.9664,-17.21876 -1.7385,-9.58159 -6.8997,-15.35109 -10.8078,-21.29311 -4.4213,-6.15238 -10.3727,-15.0395 -12.2901,-19.31683 0,0 -6.0483,9.20452 -13.9172,20.02959 -5.2618,7.23851 -9.4731,15.08233 -9.8651,21.83538 -0.4479,7.71548 2.7193,14.63175 11.4891,15.82765 z" style="display:inline;fill:#d40000;fill-opacity:1"/></g></g></svg>