<svg xmlns="http://www.w3.org/2000/svg" xmlns:svg="http://www.w3.org/2000/svg" id="svg4423" width="224.225" height="312.808" version="1.1"><metadata id="metadata4428"/><g id="layer1" transform="translate(-259.93468,-369.77721)"><g id="g8925" transform="translate(-1760.0774,198.14981)" style="display:inline"><g id="g8796"><g id="g8902" transform="translate(-4683.8753,2918.9368)"><rect id="rect6353" width="223.228" height="311.811" x="6704.386" y="-2746.811" rx="10.63" ry="10.63" style="display:inline;fill:#fff;fill-opacity:1;stroke:#000;stroke-width:.99673343;stroke-miterlimit:4;stroke-dasharray:none;stroke-opacity:1"/><g id="g8591" transform="matrix(0.30106207,0,0,0.30106207,5623.2929,-1949.6699)"><path style="display:inline;fill:#d40000;fill-opacity:1" id="path7104" d="m 3650.1724,-2493.7296 0,-9.3439 8.5863,0 0,-15.399 -42.9315,0 0,-10.865 46.4525,-70.0793 7.5907,0.026 0,70.0533 13.1319,0 0,10.865 -13.1319,0 -0.2526,15.399 7.1974,0 0,9.3439 z m 8.5863,-80.04 -29.4929,44.4321 29.4929,0 z"/><path id="path7159" d="m 4273.1571,-1766.0936 0,9.3439 -8.5863,0 0,15.399 42.9315,0 0,10.865 -46.4525,70.0793 -7.5907,-0.026 0,-70.0533 -13.1319,0 0,-10.865 13.1319,0 0.2526,-15.399 -7.1974,0 0,-9.3439 z m -8.5863,80.04 29.4929,-44.4321 -29.4929,0 z" style="display:inline;fill:#d40000;fill-opacity:1"/></g></g></g><path style="display:inline;fill:#d40000;fill-opacity:1" id="path8638" d="m 2029.2665,233.12056 c -1.583,-3.47229 -1.7567,-9.4054 2.9711,-10.20801 3.5621,-0.45844 5.0117,1.1983 5.2999,3.74186 0.1422,0.74302 0.5617,0.7885 0.6948,-0.0583 0.2044,-2.60939 2.7872,-4.1326 4.8064,-3.74997 5.5266,0.9454 5.2039,7.02845 3.3985,11.15554 -2.7309,5.47946 -5.6006,8.93761 -8.245,14.45186 -3.0382,-5.74101 -6.5073,-10.4051 -8.9257,-15.33294 z"/><path id="path8520" d="m 2065.5077,198.19006 c 7.144,-0.4744 10.8684,5.62741 11.5952,10.43645 0.4334,0.76389 0.6707,0.54864 0.8369,-0.0423 0.3493,-6.17414 5.8749,-11.22017 10.9926,-10.53018 8.328,0.10829 13.3895,9.3754 11.9664,17.21876 -1.7385,9.58159 -6.8997,15.35109 -10.8078,21.29311 -4.4213,6.15238 -10.3727,15.0395 -12.2901,19.31683 0,0 -6.0483,-9.20452 -13.9172,-20.02959 -5.2618,-7.23851 -9.4731,-15.08233 -9.8651,-21.83538 -0.4479,-7.71548 2.7193,-14.63175 11.4891,-15.82765 z" style="display:inline;fill:#d40000;fill-opacity:1"/><path id="path8522" d="m 2175.0405,198.19006 c 7.144,-0.4744 10.8684,5.62741 11.5952,10.43645 0.4334,0.76389 0.6707,0.54864 0.8369,-0.0423 0.3493,-6.17414 5.8749,-11.22017 10.9926,-10.53018 8.328,0.10829 13.3895,9.3754 11.9664,17.21876 -1.7385,9.58159 -6.8997,15.35109 -10.8078,21.29311 -4.4213,6.15238 -10.3727,15.0395 -12.2901,19.31683 0,0 -6.0483,-9.20452 -13.9172,-20.02959 -5.2618,-7.23851 -9.4731,-15.08233 -9.8651,-21.83538 -0.4479,-7.71548 2.7193,-14.63175 11.4891,-15.82765 z" style="display:inline;fill:#d40000;fill-opacity:1"/><path id="path8584" d="m 2065.5077,454.53043 c 7.144,0.4744 10.8684,-5.62741 11.5952,-10.43645 0.4334,-0.76389 0.6707,-0.54864 0.8369,0.0423 0.3493,6.17414 5.8749,11.22017 10.9926,10.53018 8.328,-0.10829 13.3895,-9.3754 11.9664,-17.21876 -1.7385,-9.58159 -6.8997,-15.35109 -10.8078,-21.29311 -4.4213,-6.15238 -10.3727,-15.0395 -12.2901,-19.31683 0,0 -6.0483,9.20452 -13.9172,20.02959 -5.2618,7.23851 -9.4731,15.08233 -9.8651,21.83538 -0.4479,7.71548 2.7193,14.63175 11.4891,15.82765 z" style="display:inline;fill:#d40000;fill-opacity:1"/><path id="path8586" d="m 2175.0405,454.53043 c 7.144,0.4744 10.8684,-5.62741 11.5952,-10.43645 0.4334,-0.76389 0.6707,-0.54864 0.8369,0.0423 0.3493,6.17414 5.8749,11.22017 10.9926,10.53018 8.328,-0.10829 13.3895,-9.3754 11.9664,-17.21876 -1.7385,-9.58159 -6.8997,-15.35109 -10.8078,-21.29311 -4.4213,-6.15238 -10.3727,-15.0395 -12.2901,-19.31683 0,0 -6.0483,9.20452 -13.9172,20.02959 -5.2618,7.23851 -9.4731,15.08233 -9.8651,21.83538 -0.4479,7.71548 2.7193,14.63175 11.4891,15.82765 z" style="display:inline;fill:#d40000;fill-opacity:1"/><path id="path8654" d="m 2216.4851,423.23315 c -1.583,3.47229 -1.7567,9.4054 2.9711,10.20801 3.5621,0.45844 5.0117,-1.1983 5.2999,-3.74186 0.1422,-0.74302 0.5617,-0.7885 0.6948,0.0583 0.2044,2.60939 2.7872,4.1326 4.8064,3.74997 5.5266,-0.9454 5.2039,-7.02845 3.3985,-11.15554 -2.7309,-5.47946 -5.6006,-8.93761 -8.245,-14.45186 -3.0382,5.74101 -6.5073,10.4051 -8.9257,15.33294 z" style="display:inline;fill:#d40000;fill-opacity:1"/></g></g></svg>