<svg xmlns="http://www.w3.org/2000/svg" xmlns:svg="http://www.w3.org/2000/svg" id="svg4423" width="224.225" height="312.808" version="1.1"><metadata id="metadata4428"/><g id="layer1" transform="translate(-259.93475,-369.7772)"><g id="g8993" transform="translate(-1536.8493,-113.66123)" style="display:inline"><g id="g8871"><g id="g8817" transform="translate(-4683.8753,2918.9368)"><rect id="rect6363" width="223.228" height="311.811" x="6481.158" y="-2435" rx="10.63" ry="10.63" style="display:inline;fill:#fff;fill-opacity:1;stroke:#000;stroke-width:.99673343;stroke-miterlimit:4;stroke-dasharray:none;stroke-opacity:1"/><g id="g8631" transform="matrix(0.30106207,0,0,0.30106207,5727.1309,-1950.5247)"><g id="g8685" transform="translate(-1267.7708,-112.90889)"><path id="path7114" d="m 3799.8152,-1365.6057 10.0533,-3.1289 c 3.7922,9.9493 11.4591,12.8837 19.5692,12.2531 14.5555,-1.1319 19.3863,-17.1012 20.478,-31.2209 -5.6714,5.8929 -14.1968,8.8873 -21.456,8.5952 -23.1923,-1.2267 -29.1284,-19.4462 -29.3445,-38.5346 -0.6442,-16.0974 6.137,-27.754 17.7651,-33.0942 6.1521,-2.7117 20.2437,-2.7121 26.4377,0.4937 14.2233,7.3614 19.4871,20.0913 18.5323,50.458 0.015,24.9907 -5.396,54.0994 -32.6758,54.7229 -15.7699,2.1396 -27.7434,-9.8975 -29.3593,-20.5443 z m 39.4845,-27.3822 c 4.7326,-2.9414 7.4036,-5.7004 9.5251,-9.8386 1.7414,-3.3968 2.3306,-5.159 1.8343,-12.1919 -1.2788,-18.1202 -10.9588,-28.3918 -24.9935,-26.3512 -7.8275,1.1381 -12.101,5.442 -14.5574,13.4454 -4.5359,14.7783 1.214,32.0775 11.9863,36.0621 4.8586,1.7971 12.3384,1.2775 16.2052,-1.1258 z" style="display:inline;fill:#d40000;fill-opacity:1"/><path style="display:inline;fill:#d40000;fill-opacity:1" id="path7130" d="m 4484.1787,-591.31443 -10.0533,3.1289 c -3.7922,-9.9493 -11.4591,-12.8837 -19.5692,-12.2531 -14.5555,1.1319 -19.3863,17.1012 -20.478,31.221 5.6714,-5.893 14.1968,-8.8874 21.456,-8.5953 23.1923,1.2267 29.1284,19.4463 29.3445,38.5347 0.6442,16.0974 -6.137,27.754 -17.7651,33.0942 -6.1521,2.7117 -20.2437,2.7121 -26.4377,-0.4937 -14.2233,-7.3614 -19.4871,-20.0913 -18.5323,-50.458 -0.015,-24.9908 5.396,-54.0995 32.6758,-54.723 15.7699,-2.1396 27.7434,9.8975 29.3593,20.5443 z m -39.4845,27.3823 c -4.7326,2.9414 -7.4036,5.7004 -9.5251,9.8386 -1.7414,3.3968 -2.3306,5.159 -1.8343,12.1919 1.2788,18.1202 10.9588,28.3918 24.9935,26.3512 7.8275,-1.1381 12.101,-5.442 14.5574,-13.4454 4.5359,-14.7783 -1.214,-32.0775 -11.9863,-36.0621 -4.8586,-1.7971 -12.3384,-1.2775 -16.2052,1.1258 z"/></g></g></g></g><path style="display:inline;fill:#d40000;fill-opacity:1" id="path8636" d="m 1805.8658,542.26179 c -1.583,-3.47229 -1.7567,-9.4054 2.9711,-10.20801 3.5621,-0.45844 5.0117,1.1983 5.2999,3.74186 0.1422,0.74302 0.5617,0.7885 0.6948,-0.0583 0.2044,-2.60939 2.7872,-4.1326 4.8064,-3.74997 5.5266,0.9454 5.2039,7.02845 3.3985,11.15554 -2.7309,5.47946 -5.6006,8.93761 -8.245,14.45186 -3.0382,-5.74101 -6.5073,-10.4051 -8.9257,-15.33294 z"/><path id="path8558" d="m 1842.1342,512.61225 c 7.144,-0.4744 10.8684,5.62741 11.5952,10.43645 0.4334,0.76389 0.6707,0.54864 0.8369,-0.0423 0.3493,-6.17414 5.8749,-11.22017 10.9926,-10.53018 8.328,0.10829 13.3895,9.3754 11.9664,17.21876 -1.7385,9.58159 -6.8997,15.35109 -10.8078,21.29311 -4.4213,6.15238 -10.3727,15.0395 -12.2901,19.31683 0,0 -6.0483,-9.20452 -13.9172,-20.02959 -5.2618,-7.23851 -9.4731,-15.08233 -9.8651,-21.83538 -0.4479,-7.71548 2.7193,-14.63175 11.4891,-15.82765 z" style="display:inline;fill:#d40000;fill-opacity:1"/><path id="path8560" d="m 1951.6669,512.61225 c 7.144,-0.4744 10.8684,5.62741 11.5952,10.43645 0.4334,0.76389 0.6707,0.54864 0.8369,-0.0423 0.3493,-6.17414 5.8749,-11.22017 10.9926,-10.53018 8.328,0.10829 13.3895,9.3754 11.9664,17.21876 -1.7385,9.58159 -6.8997,15.35109 -10.8078,21.29311 -4.4213,6.15238 -10.3727,15.0395 -12.2901,19.31683 0,0 -6.0483,-9.20452 -13.9172,-20.02959 -5.2618,-7.23851 -9.4731,-15.08233 -9.8651,-21.83538 -0.4479,-7.71548 2.7193,-14.63175 11.4891,-15.82765 z" style="display:inline;fill:#d40000;fill-opacity:1"/><path id="path8562" d="m 1951.6669,577.94285 c 7.144,-0.4744 10.8684,5.62741 11.5952,10.43645 0.4334,0.76389 0.6707,0.54864 0.8369,-0.0423 0.3493,-6.17414 5.8749,-11.22017 10.9926,-10.53018 8.328,0.10829 13.3895,9.3754 11.9664,17.21876 -1.7385,9.58159 -6.8997,15.35109 -10.8078,21.29311 -4.4213,6.15238 -10.3727,15.0395 -12.2901,19.31683 0,0 -6.0483,-9.20452 -13.9172,-20.02959 -5.2618,-7.23851 -9.4731,-15.08233 -9.8651,-21.83538 -0.4479,-7.71548 2.7193,-14.63175 11.4891,-15.82765 z" style="display:inline;fill:#d40000;fill-opacity:1"/><path id="path8564" d="m 1896.8469,611.09564 c 7.144,-0.4744 10.8684,5.62741 11.5952,10.43645 0.4334,0.76389 0.6707,0.54864 0.8369,-0.0423 0.3493,-6.17414 5.8749,-11.22017 10.9926,-10.53018 8.328,0.10829 13.3895,9.3754 11.9664,17.21876 -1.7385,9.58159 -6.8997,15.35109 -10.8078,21.29311 -4.4213,6.15238 -10.3727,15.0395 -12.2901,19.31683 0,0 -6.0483,-9.20452 -13.9172,-20.02959 -5.2618,-7.23851 -9.4731,-15.08233 -9.8651,-21.83538 -0.4479,-7.71548 2.7193,-14.63175 11.4891,-15.82765 z" style="display:inline;fill:#d40000;fill-opacity:1"/><path id="path8566" d="m 1842.1342,577.94285 c 7.144,-0.4744 10.8684,5.62741 11.5952,10.43645 0.4334,0.76389 0.6707,0.54864 0.8369,-0.0423 0.3493,-6.17414 5.8749,-11.22017 10.9926,-10.53018 8.328,0.10829 13.3895,9.3754 11.9664,17.21876 -1.7385,9.58159 -6.8997,15.35109 -10.8078,21.29311 -4.4213,6.15238 -10.3727,15.0395 -12.2901,19.31683 0,0 -6.0483,-9.20452 -13.9172,-20.02959 -5.2618,-7.23851 -9.4731,-15.08233 -9.8651,-21.83538 -0.4479,-7.71548 2.7193,-14.63175 11.4891,-15.82765 z" style="display:inline;fill:#d40000;fill-opacity:1"/><path id="path8606" d="m 1951.6669,702.3331 c 7.144,0.4744 10.8684,-5.62741 11.5952,-10.43645 0.4334,-0.76389 0.6707,-0.54864 0.8369,0.0423 0.3493,6.17414 5.8749,11.22017 10.9926,10.53018 8.328,-0.10829 13.3895,-9.3754 11.9664,-17.21876 -1.7385,-9.58159 -6.8997,-15.35109 -10.8078,-21.29311 -4.4213,-6.15238 -10.3727,-15.0395 -12.2901,-19.31683 0,0 -6.0483,9.20452 -13.9172,20.02959 -5.2618,7.23851 -9.4731,15.08233 -9.8651,21.83538 -0.4479,7.71548 2.7193,14.63175 11.4891,15.82765 z" style="display:inline;fill:#d40000;fill-opacity:1"/><path id="path8608" d="m 1951.6669,767.43854 c 7.144,0.4744 10.8684,-5.62741 11.5952,-10.43645 0.4334,-0.76389 0.6707,-0.54864 0.8369,0.0423 0.3493,6.17414 5.8749,11.22017 10.9926,10.53018 8.328,-0.10829 13.3895,-9.3754 11.9664,-17.21876 -1.7385,-9.58159 -6.8997,-15.35109 -10.8078,-21.29311 -4.4213,-6.15238 -10.3727,-15.0395 -12.2901,-19.31683 0,0 -6.0483,9.20452 -13.9172,20.02959 -5.2618,7.23851 -9.4731,15.08233 -9.8651,21.83538 -0.4479,7.71548 2.7193,14.63175 11.4891,15.82765 z" style="display:inline;fill:#d40000;fill-opacity:1"/><path id="path8610" d="m 1842.1342,767.43854 c 7.144,0.4744 10.8684,-5.62741 11.5952,-10.43645 0.4334,-0.76389 0.6707,-0.54864 0.8369,0.0423 0.3493,6.17414 5.8749,11.22017 10.9926,10.53018 8.328,-0.10829 13.3895,-9.3754 11.9664,-17.21876 -1.7385,-9.58159 -6.8997,-15.35109 -10.8078,-21.29311 -4.4213,-6.15238 -10.3727,-15.0395 -12.2901,-19.31683 0,0 -6.0483,9.20452 -13.9172,20.02959 -5.2618,7.23851 -9.4731,15.08233 -9.8651,21.83538 -0.4479,7.71548 2.7193,14.63175 11.4891,15.82765 z" style="display:inline;fill:#d40000;fill-opacity:1"/><path id="path8612" d="m 1842.1342,702.3331 c 7.144,0.4744 10.8684,-5.62741 11.5952,-10.43645 0.4334,-0.76389 0.6707,-0.54864 0.8369,0.0423 0.3493,6.17414 5.8749,11.22017 10.9926,10.53018 8.328,-0.10829 13.3895,-9.3754 11.9664,-17.21876 -1.7385,-9.58159 -6.8997,-15.35109 -10.8078,-21.29311 -4.4213,-6.15238 -10.3727,-15.0395 -12.2901,-19.31683 0,0 -6.0483,9.20452 -13.9172,20.02959 -5.2618,7.23851 -9.4731,15.08233 -9.8651,21.83538 -0.4479,7.71548 2.7193,14.63175 11.4891,15.82765 z" style="display:inline;fill:#d40000;fill-opacity:1"/><path id="path8662" d="m 1994.681,733.11947 c -1.583,3.47229 -1.7567,9.4054 2.9711,10.20801 3.5621,0.45844 5.0117,-1.1983 5.2999,-3.74186 0.1422,-0.74302 0.5617,-0.7885 0.6948,0.0583 0.2044,2.60939 2.7872,4.1326 4.8064,3.74997 5.5266,-0.9454 5.2039,-7.02845 3.3985,-11.15554 -2.7309,-5.47946 -5.6006,-8.93761 -8.245,-14.45186 -3.0382,5.74101 -6.5073,10.4051 -8.9257,15.33294 z" style="display:inline;fill:#d40000;fill-opacity:1"/></g></g></svg>