<?xml version="1.0" standalone="no"?>
<!DOCTYPE svg PUBLIC "-//W3C//DTD SVG 20010904//EN"
 "http://www.w3.org/TR/2001/REC-SVG-20010904/DTD/svg10.dtd">
<svg version="1.0" xmlns="http://www.w3.org/2000/svg"
 width="1000.000000pt" height="1000.000000pt" viewBox="0 0 1000.000000 1000.000000"
 preserveAspectRatio="xMidYMid meet">
<metadata>
Created by potrace 1.14, written by Peter Selinger 2001-2017
</metadata>
<g transform="translate(0.000000,1000.000000) scale(0.100000,-0.100000)"
fill="#000000" stroke="none">
<path d="M4675 9984 c-22 -2 -92 -9 -155 -15 -890 -82 -1757 -417 -2495 -964
-367 -272 -748 -653 -1020 -1020 -478 -644 -790 -1375 -919 -2150 -53 -315
-61 -423 -61 -830 0 -406 8 -514 61 -830 145 -873 521 -1686 1105 -2385 133
-160 439 -466 599 -599 790 -660 1685 -1037 2730 -1153 155 -17 815 -17 970 0
623 69 1154 219 1675 471 529 257 952 557 1365 971 412 412 715 836 965 1355
255 526 400 1030 472 1640 25 215 25 845 0 1060 -109 923 -423 1723 -962 2450
-272 367 -653 748 -1020 1020 -634 470 -1354 780 -2122 915 -278 49 -433 61
-798 65 -192 1 -368 1 -390 -1z m-607 -3448 c364 -340 662 -619 662 -621 0 -2
-298 -281 -662 -621 -365 -339 -680 -633 -700 -653 l-38 -35 0 1309 0 1309 38
-35 c20 -20 335 -314 700 -653z m2600 -1270 l-3 -656 -698 651 -699 652 49 48
c26 26 341 320 698 653 l650 606 3 -649 c1 -357 1 -945 0 -1305z m-1930 -1841
l-3 -655 -695 651 c-382 357 -695 654 -695 659 0 5 313 302 695 659 l695 651
3 -655 c1 -360 1 -950 0 -1310z m1247 1290 c369 -344 670 -630 670 -635 0 -5
-301 -291 -670 -636 -368 -344 -682 -638 -697 -652 l-28 -26 0 1314 0 1314 28
-26 c15 -14 329 -308 697 -653z"/>
<path d="M3480 5915 l0 -976 378 353 c207 193 442 413 522 488 l145 135 -522
488 -523 487 0 -975z"/>
<path d="M5995 6402 l-520 -487 523 -488 522 -487 0 975 c0 536 -1 975 -2 974
-2 0 -237 -220 -523 -487z"/>
<path d="M4068 4570 c-285 -267 -518 -487 -518 -490 0 -3 233 -223 518 -490
l517 -484 3 487 c1 268 1 706 0 974 l-3 487 -517 -484z"/>
<path d="M5410 4080 c0 -956 0 -972 19 -959 29 21 1021 953 1021 959 0 6 -992
938 -1021 959 -19 13 -19 -3 -19 -959z"/>
</g>
</svg>
