<?xml version="1.0" standalone="no"?>
<!DOCTYPE svg PUBLIC "-//W3C//DTD SVG 20010904//EN"
 "http://www.w3.org/TR/2001/REC-SVG-20010904/DTD/svg10.dtd">
<svg version="1.0" xmlns="http://www.w3.org/2000/svg"
 width="1000.000000pt" height="1000.000000pt" viewBox="0 0 1000.000000 1000.000000"
 preserveAspectRatio="xMidYMid meet">
<metadata>
Created by potrace 1.14, written by Peter Selinger 2001-2017
</metadata>
<g transform="translate(0.000000,1000.000000) scale(0.100000,-0.100000)"
fill="#000000" stroke="none">
<path d="M4749 9986 c-2 -2 -49 -7 -104 -11 -110 -7 -132 -9 -220 -19 -166
-19 -259 -35 -495 -82 -275 -55 -717 -204 -995 -334 -181 -84 -247 -118 -380
-194 -502 -286 -974 -672 -1325 -1086 -30 -36 -57 -67 -61 -70 -3 -3 -49 -61
-103 -130 -466 -598 -811 -1353 -952 -2085 -2 -11 -6 -31 -9 -45 -7 -38 -16
-91 -21 -130 -2 -19 -8 -57 -13 -85 -6 -27 -13 -79 -16 -115 -4 -36 -9 -78
-11 -95 -26 -221 -26 -774 1 -1000 15 -135 31 -252 40 -305 76 -450 204 -870
387 -1270 33 -71 114 -236 128 -260 5 -8 28 -49 51 -90 80 -145 93 -166 176
-294 124 -190 309 -434 432 -570 233 -257 403 -420 633 -603 284 -227 560
-404 868 -557 74 -37 144 -72 154 -78 96 -51 443 -183 641 -243 218 -66 517
-134 705 -160 316 -43 469 -53 795 -49 165 1 318 5 340 8 22 3 69 8 105 11 61
5 112 11 170 20 14 2 45 6 70 10 25 4 59 9 75 11 17 2 41 6 55 9 14 3 39 7 55
10 17 3 39 7 50 9 11 3 63 14 115 25 674 147 1339 453 1895 871 304 229 614
519 812 760 12 14 40 47 63 74 141 165 343 460 489 713 62 108 194 376 236
478 20 50 42 104 50 120 71 159 202 587 241 785 3 14 12 59 20 100 9 41 17 88
19 104 3 15 6 35 9 45 3 9 8 41 11 71 3 30 8 62 10 70 2 8 6 46 10 83 3 37 8
76 10 85 19 103 27 659 12 887 -5 66 -10 122 -12 125 -1 3 -6 37 -10 75 -7 80
-14 129 -21 167 -3 15 -7 41 -9 59 -4 29 -33 186 -39 214 -10 38 -17 69 -32
135 -49 222 -168 587 -245 759 -11 24 -29 66 -40 93 -27 68 -185 385 -210 419
-10 15 -19 30 -19 34 0 23 -224 365 -340 520 -256 342 -496 592 -866 901 -167
139 -430 318 -681 463 -71 41 -387 201 -397 201 -3 0 -31 12 -63 26 -94 43
-113 50 -223 92 -226 86 -532 175 -745 218 -138 27 -155 30 -245 44 -87 14
-210 28 -295 36 -38 3 -86 8 -105 11 -40 6 -626 14 -631 9z"/>
</g>
</svg>
